<svg width="12" height="12" viewBox="0 0 12 12" fill="none" xmlns="http://www.w3.org/2000/svg">
<g clip-path="url(#clip0)">
<path d="M4.15381 5.53827H2.53841C2.34609 5.53827 2.18259 5.47098 2.04796 5.33635C1.9134 5.20172 1.84604 5.03827 1.84604 4.8459V4.61523C1.84604 4.10559 2.02636 3.67053 2.38698 3.30991C2.74758 2.94942 3.18271 2.76909 3.69231 2.76909H4.15381C4.27879 2.76909 4.38692 2.7234 4.47831 2.63209C4.56965 2.54073 4.61531 2.4326 4.61531 2.30759V1.38443C4.61531 1.25945 4.56962 1.15122 4.47831 1.05986C4.38695 0.968621 4.27882 0.922852 4.15381 0.922852H3.69231C3.19226 0.922852 2.71519 1.0203 2.26081 1.21492C1.80648 1.40966 1.41351 1.67291 1.08173 2.00469C0.749984 2.33631 0.486813 2.72931 0.292093 3.18369C0.0973727 3.63802 0 4.11521 0 4.61521V9.692C0 10.0768 0.134554 10.4036 0.403787 10.6729C0.673046 10.9421 1.00005 11.0767 1.38464 11.0767H4.15399C4.53855 11.0767 4.86545 10.9421 5.13474 10.6729C5.40392 10.4036 5.53855 10.0768 5.53855 9.692V6.9229C5.53855 6.53816 5.40392 6.21141 5.13456 5.94205C4.8654 5.67289 4.53837 5.53827 4.15381 5.53827Z" fill="white"/>
<path d="M11.5964 5.94205C11.3272 5.67289 11.0003 5.53827 10.6157 5.53827H9.00029C8.80807 5.53827 8.64442 5.47098 8.51001 5.33635C8.37533 5.20172 8.3081 5.03827 8.3081 4.8459V4.61523C8.3081 4.10559 8.48842 3.67053 8.84886 3.30991C9.20933 2.94942 9.64444 2.76909 10.1543 2.76909H10.6157C10.7407 2.76909 10.8489 2.7234 10.9402 2.63209C11.0315 2.54073 11.0773 2.4326 11.0773 2.30759V1.38443C11.0773 1.25945 11.0315 1.15122 10.9402 1.05986C10.8489 0.968621 10.7407 0.922852 10.6157 0.922852H10.1543C9.65396 0.922852 9.177 1.0203 8.72249 1.21492C8.26824 1.40966 7.87539 1.67291 7.54361 2.00469C7.21184 2.33631 6.94854 2.72931 6.7539 3.18369C6.55923 3.63802 6.46173 4.11521 6.46173 4.61521V9.692C6.46173 10.0768 6.59641 10.4036 6.86557 10.6729C7.13475 10.9421 7.46167 11.0767 7.84631 11.0767H10.6155C11.0002 11.0767 11.3271 10.9421 11.5962 10.6729C11.8656 10.4036 12 10.0768 12 9.692V6.9229C12 6.53814 11.8656 6.21141 11.5964 5.94205Z" fill="white"/>
</g>
<defs>
<clipPath id="clip0">
<rect width="12" height="12" fill="white"/>
</clipPath>
</defs>
</svg>
