<svg width="20" height="20" viewBox="0 0 20 20" fill="none" xmlns="http://www.w3.org/2000/svg">
<path d="M14.6625 17.505H14.6391C11.4377 17.4262 8.38269 16.1479 6.07913 13.9233C3.85373 11.6219 2.57471 8.56797 2.4957 5.3675C2.49098 4.91916 2.66701 4.4878 2.98413 4.17083L5.24579 1.91083C5.57121 1.58551 6.09871 1.58551 6.42413 1.91083L9.75746 5.24417C10.0828 5.56958 10.0828 6.09708 9.75746 6.4225L8.42746 7.75C8.67414 8.6716 9.12852 9.5245 9.75579 10.2433C10.4733 10.8708 11.3251 11.3255 12.2458 11.5725L13.5791 10.2442C13.9045 9.91885 14.432 9.91885 14.7575 10.2442L18.0908 13.5775C18.4161 13.9029 18.4161 14.4304 18.0908 14.7558L15.8291 17.0167C15.5207 17.3283 15.1009 17.504 14.6625 17.505ZM5.83329 3.67917H5.82913L4.16246 5.34917C4.23042 8.11471 5.33439 10.7539 7.25579 12.7442C9.24615 14.6649 11.8848 15.7688 14.65 15.8375L16.3225 14.1667L14.1625 12.0125L13.085 13.0892C12.9308 13.245 12.7208 13.3329 12.5016 13.3333C12.4431 13.3334 12.3847 13.3272 12.3275 13.315C10.9388 13.0078 9.64945 12.3571 8.57746 11.4225C7.64284 10.3505 6.99214 9.06114 6.68496 7.6725C6.62701 7.39647 6.71262 7.10986 6.91246 6.91083L7.98913 5.83333L5.83329 3.67917Z" fill="white"/>
</svg>
